HIERARCHY
ROOT root
{
	OFFSET 0.000000 0.000000 0.000000
	CHANNELS 6 Xposition Yposition Zposition Zrotation Yrotation Xrotation
	JOINT lhip
	{
		OFFSET 0.058581 -0.082280 -0.017664
		CHANNELS 3 Zrotation Yrotation Xrotation
		JOINT lknee
		{
			OFFSET 0.043451 -0.386469 0.008037
			CHANNELS 3 Zrotation Yrotation Xrotation
			JOINT lankle
			{
				OFFSET -0.014790 -0.426874 -0.037428
				CHANNELS 3 Zrotation Yrotation Xrotation
				JOINT ltoe
				{
					OFFSET 0.041054 -0.060286 0.122042
					CHANNELS 3 Zrotation Yrotation Xrotation
					End Site
					{
						OFFSET 0.000000 0.000000 0.000000
					}
				}
			}
		}
	}
	JOINT rhip
	{
		OFFSET -0.060310 -0.090513 -0.013543
		CHANNELS 3 Zrotation Yrotation Xrotation
		JOINT rknee
		{
			OFFSET -0.043257 -0.383688 -0.004843
			CHANNELS 3 Zrotation Yrotation Xrotation
			JOINT rankle
			{
				OFFSET 0.019056 -0.420046 -0.034562
				CHANNELS 3 Zrotation Yrotation Xrotation
				JOINT rtoe
				{
					OFFSET -0.034840 -0.062106 0.130323
					CHANNELS 3 Zrotation Yrotation Xrotation
					End Site
					{
						OFFSET 0.000000 0.000000 0.000000
					}
				}
			}
		}
	}
	JOINT lowerback
	{
		OFFSET 0.004439 0.124404 -0.038385
		CHANNELS 3 Zrotation Yrotation Xrotation
		JOINT upperback
		{
			OFFSET 0.004488 0.137956 0.026820
			CHANNELS 3 Zrotation Yrotation Xrotation
			JOINT chest
			{
				OFFSET -0.002265 0.056032 0.002855
				CHANNELS 3 Zrotation Yrotation Xrotation
				JOINT lowerneck
				{
					OFFSET -0.013390 0.211636 -0.033468
					CHANNELS 3 Zrotation Yrotation Xrotation
					JOINT upperneck
					{
						OFFSET 0.010113 0.088937 0.050410
						CHANNELS 3 Zrotation Yrotation Xrotation
						End Site
						{
							OFFSET 0.000000 0.000000 0.000000
						}
					}
				}
				JOINT lclavicle
				{
					OFFSET 0.071702 0.114000 -0.018898
					CHANNELS 3 Zrotation Yrotation Xrotation
					JOINT lshoulder
					{
						OFFSET 0.122921 0.045205 -0.019046
						CHANNELS 3 Zrotation Yrotation Xrotation
						JOINT lelbow
						{
							OFFSET 0.255332 -0.015649 -0.022946
							CHANNELS 3 Zrotation Yrotation Xrotation
							JOINT lwrist
							{
								OFFSET 0.265709 0.012698 -0.007375
								CHANNELS 3 Zrotation Yrotation Xrotation
								End Site
								{
									OFFSET 0.000000 0.000000 0.000000
								}
							}
						}
					}
				}
				JOINT rclavicle
				{
					OFFSET -0.082954 0.112472 -0.023707
					CHANNELS 3 Zrotation Yrotation Xrotation
					JOINT rshoulder
					{
						OFFSET -0.113228 0.046853 -0.008472
						CHANNELS 3 Zrotation Yrotation Xrotation
						JOINT relbow
						{
							OFFSET -0.260127 -0.014369 -0.031269
							CHANNELS 3 Zrotation Yrotation Xrotation
							JOINT rwrist
							{
								OFFSET -0.269108 0.006794 -0.006027
								CHANNELS 3 Zrotation Yrotation Xrotation
								End Site
								{
									OFFSET 0.000000 0.000000 0.000000
								}
							}
						}
					}
				}
			}
		}
	}
}
MOTION
Frames: 11
Frame Time: 0.033333
0.474323 0.153961 1.003749 88.082954 -0.336750 95.171762 6.826572 3.562859 0.419045 -3.477966 -1.284169 -5.324307 -0.883979 6.679826 -3.660013 0.000000 -0.000000 0.000000 -7.767025 -2.693276 -4.261353 3.479349 -3.793824 0.016228 3.696925 -4.218883 -5.121900 0.000000 -0.000000 0.000000 -3.688806 1.193128 -10.177369 1.980193 -2.248510 11.330251 -0.906187 1.056743 -4.912396 3.581350 2.037373 7.613202 5.834042 -4.372521 -2.534689 -27.131274 -1.571555 -1.459090 -54.144325 -7.104665 19.355085 0.280958 -18.068863 10.260160 -6.989034 -17.360378 10.740348 29.480017 4.823907 4.689409 54.039363 4.440839 16.092881 -6.313730 23.248496 1.231018 -2.524366 13.769218 2.506659 
0.474120 0.153846 1.003761 88.079589 -0.341529 95.143630 6.825932 3.549889 0.433615 -3.469069 -1.275883 -5.321297 -0.884254 6.680228 -3.663199 0.000000 -0.000000 0.000000 -7.763854 -2.689355 -4.236754 3.474586 -3.772295 0.006801 3.717031 -4.232012 -5.125948 0.000000 -0.000000 0.000000 -3.672389 1.196008 -10.103353 1.960510 -2.231357 11.229824 -0.890096 1.069162 -4.834730 3.574738 2.014007 7.500474 5.804894 -4.384640 -2.375453 -27.098984 -1.585929 -1.431933 -54.179212 -7.105556 19.317271 0.267103 -18.054773 10.308450 -6.944815 -17.360998 10.763365 29.438692 4.807200 4.713983 54.091302 4.458542 16.066646 -6.339515 23.247653 1.251938 -2.542370 13.764484 2.525967 
0.473858 0.153747 1.003723 88.082551 -0.340660 95.113637 6.830752 3.538482 0.438137 -3.462355 -1.264393 -5.309771 -0.885544 6.673172 -3.659171 0.000000 -0.000000 0.000000 -7.758251 -2.685464 -4.216580 3.469275 -3.755345 -0.002386 3.735471 -4.243816 -5.134062 0.000000 -0.000000 0.000000 -3.655348 1.192684 -10.032388 1.947392 -2.226507 11.144115 -0.871853 1.081347 -4.768102 3.569316 1.985947 7.380887 5.778929 -4.398482 -2.224749 -27.064958 -1.598549 -1.411201 -54.221780 -7.096204 19.284997 0.250602 -18.044889 10.337484 -6.901383 -17.348871 10.779039 29.409088 4.788728 4.734851 54.126338 4.480825 16.035337 -6.361724 23.243393 1.261228 -2.558293 13.765565 2.573180 
0.473762 0.153574 1.003645 88.061010 -0.321590 94.995400 6.855849 3.500323 0.531326 -3.439959 -1.205447 -5.239059 -0.905495 6.671122 -3.642661 0.000000 -0.000000 0.000000 -7.747787 -2.661514 -4.064913 3.474346 -3.705142 -0.054407 3.833012 -4.271728 -5.140361 0.000000 -0.000000 0.000000 -3.591520 1.164370 -9.891116 1.896169 -2.229582 10.938949 -0.821688 1.092626 -4.580065 3.530134 1.899659 7.140634 5.724049 -4.449255 -1.895275 -26.936763 -1.664089 -1.314637 -54.414613 -7.054807 19.136896 0.217174 -18.017459 10.419858 -6.729856 -17.255652 10.754875 29.208221 4.745986 4.854256 54.344767 4.582574 15.939662 -6.358357 23.281271 1.313127 -2.638008 13.733174 2.505395 
0.473732 0.153470 1.003628 88.044280 -0.313815 94.979569 6.864800 3.487708 0.550266 -3.432424 -1.189113 -5.246623 -0.905470 6.673443 -3.617796 0.000000 -0.000000 0.000000 -7.734639 -2.645598 -4.049091 3.467941 -3.690574 -0.059286 3.866693 -4.285661 -5.141080 0.000000 -0.000000 0.000000 -3.576968 1.158948 -9.867004 1.882675 -2.215634 10.868133 -0.806733 1.090415 -4.529307 3.521088 1.876963 7.069962 5.726154 -4.453836 -1.786112 -26.888682 -1.668919 -1.290914 -54.496298 -7.058251 19.102532 0.259272 -17.972351 10.485745 -6.734984 -17.254640 10.773520 29.129185 4.720735 4.865438 54.459473 4.592335 15.920670 -6.391057 23.296243 1.392320 -2.625460 13.750881 2.471289 
0.473665 0.153343 1.003604 87.993935 -0.324246 94.966235 6.854261 3.472151 0.582395 -3.442858 -1.173669 -5.270458 -0.892619 6.700290 -3.600808 0.000000 -0.000000 0.000000 -7.747980 -2.593766 -4.047462 3.464679 -3.659354 -0.066040 3.925093 -4.309994 -5.108250 0.000000 -0.000000 0.000000 -3.552338 1.129196 -9.846941 1.842794 -2.166763 10.721450 -0.793359 1.090284 -4.398918 3.553850 1.846019 6.859285 5.694860 -4.516792 -1.497604 -26.792955 -1.634457 -1.239201 -54.665317 -7.133835 19.048247 0.346713 -17.874756 10.620602 -6.770333 -17.335328 10.734274 29.032168 4.659122 4.866320 54.667096 4.634387 15.908202 -6.516148 23.303488 1.528847 -2.636782 13.738581 2.364665 
0.473659 0.153214 1.003630 87.941136 -0.327157 94.923992 6.852581 3.497488 0.627117 -3.445768 -1.176026 -5.252407 -0.879139 6.703672 -3.610075 0.000000 -0.000000 0.000000 -7.749233 -2.548521 -4.012429 3.464098 -3.645108 -0.080739 3.934068 -4.316117 -5.087428 0.000000 -0.000000 0.000000 -3.554542 1.096427 -9.849775 1.835753 -2.133921 10.684120 -0.782032 1.075138 -4.351012 3.609236 1.811161 6.806902 5.649232 -4.536509 -1.480840 -26.738323 -1.602069 -1.256835 -54.766801 -7.158578 19.040623 0.365414 -17.774735 10.639663 -6.752698 -17.350832 10.713072 28.969446 4.656285 4.845901 54.795989 4.626830 15.937453 -6.592422 23.269990 1.509845 -2.617777 13.671132 2.250232 
0.473705 0.153195 1.003645 87.895844 -0.318711 94.895741 6.858451 3.504337 0.641299 -3.446424 -1.155727 -5.199545 -0.871527 6.724336 -3.620253 0.000000 -0.000000 0.000000 -7.745746 -2.515360 -3.989208 3.465376 -3.624713 -0.082792 3.928177 -4.307956 -5.084557 0.000000 -0.000000 0.000000 -3.552374 1.104269 -9.852742 1.852814 -2.132795 10.668805 -0.769485 1.055379 -4.372203 3.604634 1.820029 6.850039 5.678818 -4.583100 -1.577259 -26.722992 -1.560792 -1.272783 -54.783978 -7.132533 19.024343 0.329380 -17.779199 10.590059 -6.829107 -17.320926 10.704415 28.960275 4.619962 4.824804 54.791815 4.585165 15.950509 -6.567993 23.258847 1.484013 -2.557814 13.615348 2.232488 
0.473790 0.153163 1.003676 87.833870 -0.331169 94.865747 6.838348 3.519465 0.671458 -3.435214 -1.146899 -5.153300 -0.897125 6.750980 -3.665056 0.000000 -0.000000 0.000000 -7.769234 -2.511598 -3.962114 3.478620 -3.602404 -0.087228 3.939466 -4.294102 -5.070783 0.000000 -0.000000 0.000000 -3.571199 1.111785 -9.887737 1.867299 -2.123433 10.712183 -0.763477 1.054595 -4.391403 3.590744 1.839949 6.894544 5.690381 -4.613542 -1.661101 -26.717473 -1.565530 -1.276736 -54.768752 -7.121013 19.014194 0.297280 -17.794745 10.517588 -6.886439 -17.304339 10.712267 28.951096 4.616604 4.788956 54.780676 4.516889 15.953767 -6.541636 23.285486 1.470172 -2.443982 13.575466 2.281327 
0.473783 0.153091 1.003687 87.803462 -0.356991 94.817958 6.808189 3.542593 0.686608 -3.427019 -1.136852 -5.084694 -0.879757 6.747071 -3.647639 0.000000 -0.000000 0.000000 -7.793159 -2.503514 -3.925596 3.466983 -3.587822 -0.073204 3.922814 -4.271415 -5.081140 0.000000 -0.000000 0.000000 -3.612738 1.108333 -9.905426 1.866799 -2.124064 10.748894 -0.757550 1.042882 -4.378100 3.610411 1.859127 6.913215 5.737586 -4.603993 -1.690429 -26.722639 -1.618598 -1.253822 -54.738721 -7.117832 19.048643 0.329789 -17.841290 10.601530 -6.871877 -17.302735 10.855838 28.965486 4.656838 4.804515 54.779826 4.528983 15.955981 -6.540444 23.266912 1.455457 -2.396422 13.577370 2.305088 
0.473643 0.153138 1.003693 87.783592 -0.361954 94.784029 6.813486 3.539850 0.639964 -3.448972 -1.124626 -4.938292 -0.886067 6.745610 -3.673253 0.000000 -0.000000 0.000000 -7.809787 -2.519365 -3.905766 3.478069 -3.554970 -0.065768 3.916095 -4.250391 -5.079553 0.000000 -0.000000 0.000000 -3.591807 1.122012 -9.849229 1.854503 -2.133335 10.688896 -0.755800 1.036683 -4.363657 3.601769 1.782458 6.870368 5.722193 -4.628980 -1.630545 -26.719131 -1.663524 -1.209258 -54.728788 -7.138235 19.074760 0.365073 -17.897012 10.735355 -6.708281 -17.313202 10.853976 28.921843 4.690217 4.848361 54.830078 4.530936 15.941406 -6.574224 23.307301 1.413304 -2.466998 13.578207 2.160592 
